<?xml version="1.0" encoding="UTF-8"?>
<svg xmlns="http://www.w3.org/2000/svg" viewBox="0 0 1000 800">
  <defs>
    <style>
      .cls-1 {
        fill: #fff;
      }

      .cls-2 {
        fill: #075daa;
      }
    </style>
  </defs>
  <g id="Layer_3">
    <ellipse class="cls-1" cx="500.15" cy="401.42" rx="504.62" ry="361.19" transform="translate(-107.32 195.83) rotate(-20.05)"/>
  </g>
  <g id="Layer_1">
    <path class="cls-2" d="M872.48,577.41c-12.96,0-28.44-2.32-46.49-6.96-16.44-4.34-29.88-6.51-40.36-6.51-.87-24.69-2.63-49.39-5.24-74.08,0-2.32,2.21-3.48,6.63-3.48,3.1,0,5.02,1.16,5.76,3.48,7.83,26.98,17.83,45.98,30,57,12.18,11.01,29.32,16.53,51.41,16.53,6.81,0,13.03-.77,18.65-2.3,13.36-15.58,25.52-31.61,36.42-47.97.21-2.51.32-5.1.32-7.78,0-11.78-4.23-22.74-12.67-32.85-8.45-10.12-26.43-23.17-53.94-39.18-31.59-18.19-52.28-33.62-62.02-46.29-9.77-12.65-14.63-26.7-14.63-42.14,0-23.72,8.77-43.77,26.34-60.14,17.57-16.38,39.84-24.56,66.8-24.56,10.2,0,21.95,1.42,35.21,4.26,12.39,2.54,23.11,3.81,32.14,3.81,1.76,25.59,4.08,48.13,7.01,67.6,0,2.33-1.89,3.49-5.66,3.49-4.06,0-6.31-1.16-6.73-3.5-4.83-21.86-12.14-37.61-21.91-47.23-9.79-9.62-23.35-14.43-40.68-14.43-16.44,0-29.53,4.8-39.22,14.41-9.7,9.61-14.52,22.56-14.52,38.85,0,10.33,4.06,20.19,12.17,29.57,8.11,9.39,25.68,21.94,52.71,37.65,32.01,18.64,52.98,34.21,62.93,46.73,3.59,4.52,6.52,9.21,8.81,14.05,35.48-76.66,43.18-157.37,15.71-231.29C907.71,36.48,637.88-36.4,374.75,61.36c-123.59,45.93-223.71,121.33-287.93,207.84,3.39.1,6.59.15,9.55.15,8.9,0,19.78-.45,32.6-1.35,13.38-.89,24.92-1.34,34.67-1.34,2.33,0,3.5,1.98,3.5,5.92s-1.18,5.93-3.5,5.93c-12.22,1.46-21.53,3.39-27.92,5.8-6.4,2.41-10.82,5.65-13.3,9.73-2.48,4.09-3.7,11.31-3.7,21.66v205.89c0,10.06,1.22,17.18,3.7,21.34,2.48,4.15,6.87,7.43,13.19,9.84,6.33,2.4,15.6,4.35,27.82,5.8,2.46.29,3.71,2.23,3.71,5.81,0,4.03-1.18,6.05-3.5,6.05-9.75,0-21.29-.46-34.67-1.36-12.82-.9-23.7-1.34-32.6-1.34s-19.77.45-32.59,1.34c-13.54.9-25.25,1.36-35.13,1.36-2.33,0-3.48-2.01-3.48-6.05,0-3.58,1.16-5.52,3.48-5.81,17.59-2.04,29.55-5.32,35.88-9.85,6.33-4.5,9.5-13.56,9.5-27.12v-205.89c0-10.21-1.28-17.4-3.83-21.55-.11-.18-.24-.35-.36-.52C10.35,385.22-9.37,486.89,24.57,578.2c69.73,187.67,339.57,260.56,602.71,162.79,102.05-37.92,188.08-95.94,251.12-163.71-1.95.08-3.91.13-5.92.13ZM439.02,337.74c-2.5,0-4.05-1.01-4.64-3.04-5.08-16.82-13.78-29.59-26.12-38.3-12.33-8.7-27.42-13.06-45.27-13.06h-39.18c-17.12,0-25.68,8.73-25.68,26.2v97.14h49.71c14.61,0,24.52-3.33,29.69-10.01,5.18-6.69,8.89-18.52,11.08-35.51,0-2.32,1.94-3.49,5.82-3.49s6.03,1.17,6.03,3.5c0,7.29-.45,16.47-1.35,27.53-.9,10.63-1.34,19.3-1.34,26.01s.45,15.59,1.34,26.22c.9,11.35,1.35,20.68,1.35,27.98,0,2.32-2.02,3.49-6.03,3.49s-5.82-1.17-5.82-3.52c-2.34-17.81-6.25-30.3-11.73-37.45-5.48-7.15-15.16-10.74-29.04-10.74h-49.71v100.95c0,10.04,1.27,17.15,3.81,21.3,2.54,4.15,7.05,7.43,13.52,9.84,6.47,2.4,15.74,4.33,27.81,5.78,2.48.29,3.71,2.23,3.71,5.81,0,4.03-1.17,6.05-3.49,6.05-9.75,0-21.39-.46-34.9-1.36-12.97-.9-23.91-1.34-32.81-1.34s-19.78.45-32.6,1.34c-13.38.9-24.94,1.36-34.68,1.36-2.33,0-3.49-2.01-3.49-6.05,0-3.58,1.16-5.52,3.49-5.81,12.07-1.45,21.3-3.4,27.7-5.8,6.4-2.41,10.87-5.65,13.42-9.73,2.54-4.08,3.82-11.22,3.82-21.45v-205.89c0-10.07-1.21-17.18-3.61-21.34-2.4-4.16-6.8-7.48-13.19-9.96-6.4-2.47-15.78-4.44-28.13-5.9-2.33,0-3.49-1.97-3.49-5.93s1.16-5.92,3.49-5.92c36.64,1.8,74.17,2.69,112.58,2.69,36.37,0,72.81-.9,109.33-2.69,4.8,25.15,10.26,47.39,16.37,66.74,0,2.9-2.58,4.35-7.75,4.35ZM724.04,533.43c-29.64,29.32-68.35,43.98-116.17,43.98s-86.45-14.65-116.03-43.98c-29.56-29.32-44.33-67.07-44.33-113.19s14.89-84.54,44.67-114.73c29.78-30.21,68.35-45.32,115.7-45.32s86.16,15.11,115.96,45.32c29.78,30.19,44.67,68.43,44.67,114.73s-14.81,83.87-44.45,113.19Z"/>
    <path class="cls-2" d="M656.02,427.16c2.48-8.59,21.66-5.53,21.66-5.53,3.19.32,5.5,1.36,5.5,1.36-4.37-12.49-25.37-27.45-25.37-27.45.41-61.07-33.16-97.98-33.16-97.98-13.67-15.84-29.23-42.83-29.23-42.83-4.78-8.52-6.77-4.71-6.77-4.71.07,7.24-8.98,16.92-8.98,16.92-38.12,52.83-35.07,104.2-35.07,104.2-1.17,41.25,31,84.6,31,84.6,30.43,45.29,8.63,79.32,8.63,79.32-15.41,28.43-26.57,40.42-26.57,40.42-2.29,1.81-2.07,3.9-2.07,3.9.39,2.44,4.29-.49,4.29-.49,25.75-13.44,44.83-11,44.83-11,50.91,8.46,66.36,30.4,66.36,30.4,5.03,2.48,4.92-1.07,4.92-1.07-.57-2.7-3.68-7.27-3.68-7.27-3.5-4.18-10.55-11.1-10.55-11.1-24.74-19.58-28.31-34.02-28.31-34.02-2.69-6.59-6.34-23.96-.17-51.24,6.43-28.31,22.74-66.42,22.74-66.42ZM593.24,300.29c.55-5.26,4.16-9.22,8.12-8.83,3.97.4,6.72,4.99,6.19,10.26-.52,5.27-4.16,9.23-8.12,8.83-3.95-.39-6.72-5-6.2-10.27ZM572.59,349.29s4.25,19.11,14.99,25.89c0,0,9.6,4.81,21.01,2.29,0,0-30.14,22.49-36-28.18Z"/>
    <g>
      <path class="cls-2" d="M918.1,61.52h-9.66v-3.49h23.5v3.49h-9.7v28.26h-4.14v-28.26Z"/>
      <path class="cls-2" d="M962.24,75.84c-.24-4.43-.52-9.75-.47-13.71h-.14c-1.08,3.72-2.4,7.68-4,12.06l-5.61,15.4h-3.11l-5.13-15.12c-1.51-4.48-2.78-8.57-3.67-12.34h-.09c-.09,3.96-.33,9.28-.61,14.04l-.85,13.61h-3.91l2.21-31.75h5.23l5.42,15.36c1.32,3.91,2.4,7.4,3.2,10.69h.14c.8-3.2,1.93-6.69,3.34-10.69l5.65-15.36h5.23l1.98,31.75h-4l-.8-13.94Z"/>
    </g>
  </g>
</svg>